<svg xmlns="http://www.w3.org/2000/svg" xmlns:xlink="http://www.w3.org/1999/xlink" viewBox="0 0 96 92" width="96" height="92" role="img"><title>LinkedIn</title><style>.lbl{font:600 12.5px -apple-system,BlinkMacSystemFont,'Segoe UI',Helvetica,Arial,sans-serif;fill:#57606a;letter-spacing:.2px}@media(prefers-color-scheme:dark){.lbl{fill:#c9d1d9}}</style><defs><filter id="linkedins" x="-50%" y="-50%" width="200%" height="200%"><feGaussianBlur stdDeviation="3.2"/></filter><linearGradient id="linkedinb" x1="0" y1="0" x2="0" y2="1"><stop offset="0" stop-color="#2b3244"/><stop offset="1" stop-color="#141821"/></linearGradient><radialGradient id="linkeding" cx=".5" cy=".42" r=".62"><stop offset="0" stop-color="#0a66c2" stop-opacity="0.6"/><stop offset="1" stop-color="#0a66c2" stop-opacity="0"/></radialGradient><linearGradient id="linkedinl" x1="0" y1="0" x2="0" y2="1"><stop offset="0" stop-color="#fff" stop-opacity=".2"/><stop offset=".5" stop-color="#fff" stop-opacity=".03"/><stop offset="1" stop-color="#fff" stop-opacity="0"/></linearGradient><linearGradient id="linkedine" x1="0" y1="0" x2="0" y2="1"><stop offset="0" stop-color="#fff" stop-opacity=".38"/><stop offset=".35" stop-color="#fff" stop-opacity=".08"/><stop offset="1" stop-color="#fff" stop-opacity=".04"/></linearGradient></defs><rect x="20" y="10" width="56" height="58" rx="14.062" fill="#000" opacity=".45" filter="url(#linkedins)"/><rect x="18" y="6" width="60" height="60" rx="14.062" fill="url(#linkedinb)"/><rect x="18" y="6" width="60" height="60" rx="14.062" fill="url(#linkeding)"/><g transform="translate(22.012 14.962) scale(0.619)"><g transform="translate(10 2) scale(0.125)"><g fill="#fff"><circle cx="256" cy="256" r="256" fill="#0a66c2"/><circle cx="142" cy="138" r="37"/><path stroke="#fff" stroke-width="66" d="M244 194v198M142 194v198"/><path d="M276 282c0-20 13-40 36-40 24 0 33 18 33 45v105h66V279c0-61-32-89-76-89-34 0-51 19-59 32"/></g></g></g><rect x="18" y="6" width="60" height="60" rx="14.062" fill="url(#linkedinl)"/><rect x="18.5" y="6.5" width="59" height="59" rx="13.562" fill="none" stroke="url(#linkedine)"/><text class="lbl" x="48" y="86" text-anchor="middle">LinkedIn</text></svg>