<svg xmlns="http://www.w3.org/2000/svg" xmlns:xlink="http://www.w3.org/1999/xlink" viewBox="0 0 84 82" width="84" height="82" role="img"><title>CSS3</title><style>.lbl{font:600 11px -apple-system,BlinkMacSystemFont,'Segoe UI',Helvetica,Arial,sans-serif;fill:#57606a;letter-spacing:.2px}@media(prefers-color-scheme:dark){.lbl{fill:#c9d1d9}}</style><defs><filter id="csss" x="-50%" y="-50%" width="200%" height="200%"><feGaussianBlur stdDeviation="3.2"/></filter><linearGradient id="cssb" x1="0" y1="0" x2="0" y2="1"><stop offset="0" stop-color="#2b3244"/><stop offset="1" stop-color="#141821"/></linearGradient><radialGradient id="cssg" cx=".5" cy=".42" r=".62"><stop offset="0" stop-color="#fff" stop-opacity="0"/><stop offset="1" stop-color="#fff" stop-opacity="0"/></radialGradient><linearGradient id="cssl" x1="0" y1="0" x2="0" y2="1"><stop offset="0" stop-color="#fff" stop-opacity=".2"/><stop offset=".5" stop-color="#fff" stop-opacity=".03"/><stop offset="1" stop-color="#fff" stop-opacity="0"/></linearGradient><linearGradient id="csse" x1="0" y1="0" x2="0" y2="1"><stop offset="0" stop-color="#fff" stop-opacity=".38"/><stop offset=".35" stop-color="#fff" stop-opacity=".08"/><stop offset="1" stop-color="#fff" stop-opacity=".04"/></linearGradient></defs><rect x="19" y="10" width="46" height="48" rx="11.719" fill="#000" opacity=".45" filter="url(#csss)"/><svg x="17" y="6" width="50" height="50" viewBox="0 0 256 256">
<rect width="256" height="256" rx="60" fill="#0277BD"/>
<path d="M53.7527 102.651L56.6155 134.593H128.096V102.651H53.7527Z" fill="#EBEBEB"/>
<path d="M128.095 38H127.985H48L50.9036 69.9423H128.095V38Z" fill="#EBEBEB"/>
<path d="M128.095 218.841V185.608L127.955 185.645L92.3813 176.04L90.1072 150.564H72.821H58.0425L62.5175 200.718L127.948 218.882L128.095 218.841Z" fill="#EBEBEB"/>
<path d="M167.318 134.593L163.61 176.019L127.985 185.635V218.866L193.468 200.718L193.948 195.321L201.454 111.229L202.233 102.651L208 38H127.985V69.9423H172.994L170.088 102.651H127.985V134.593H167.318Z" fill="white"/>
</svg><rect x="17" y="6" width="50" height="50" rx="11.719" fill="url(#cssl)"/><rect x="17.5" y="6.5" width="49" height="49" rx="11.219" fill="none" stroke="url(#csse)"/><text class="lbl" x="42" y="76" text-anchor="middle">CSS3</text></svg>